<?xml version="1.0" encoding="utf-8"?>
<!-- Generator: Adobe Illustrator 22.0.0, SVG Export Plug-In . SVG Version: 6.00 Build 0)  -->
<svg version="1.1" id="Layer_1" xmlns="http://www.w3.org/2000/svg" xmlns:xlink="http://www.w3.org/1999/xlink" x="0px" y="0px"
	 viewBox="0 0 295.2 295.2" style="enable-background:new 0 0 295.2 295.2;" xml:space="preserve">
<style type="text/css">
	.st0{fill:#FEB006;}
</style>
<g>
	<g>
		<g>
			<path class="st0" d="M257.1,0.1L40.5,0C18.2,0,0,18.2,0,40.5v254.8h223.8V102.5l9.9-6.6l18.7,9.4l19-9.5l23.8,11.9V40.5
				C295.2,19,278.4,1.3,257.1,0.1z M214.3,40.5v245.2H9.5V40.5c0-17.1,13.9-31,31-31h188.2C219.9,17,214.3,28.1,214.3,40.5z
				 M285.7,92.3l-14.3-7.1l-19,9.5L233,85l-9.2,6.1V40.5c0-17.1,13.9-31,31-31s31,13.9,31,31L285.7,92.3L285.7,92.3z"/>
			<polygon class="st0" points="141.5,103.4 161.9,82.9 182.3,103.4 189.1,96.6 168.6,76.2 189.1,55.7 182.3,49 161.9,69.5 
				141.5,49 134.7,55.7 155.2,76.2 134.7,96.6 			"/>
			<polygon class="st0" points="89.3,60.3 82.2,54 48.2,92.2 42.1,83.1 34.1,88.4 47.1,107.8 			"/>
			<rect x="23.8" y="119" class="st0" width="76.2" height="9.5"/>
			<rect x="23.8" y="142.9" class="st0" width="76.2" height="9.5"/>
			<rect x="23.8" y="166.7" class="st0" width="76.2" height="9.5"/>
			<rect x="23.8" y="190.5" class="st0" width="76.2" height="9.5"/>
			<rect x="23.8" y="214.3" class="st0" width="76.2" height="9.5"/>
			<rect x="23.8" y="238.1" class="st0" width="38.1" height="9.5"/>
			<rect x="123.8" y="119" class="st0" width="76.2" height="9.5"/>
			<rect x="123.8" y="142.9" class="st0" width="76.2" height="9.5"/>
			<rect x="123.8" y="166.7" class="st0" width="76.2" height="9.5"/>
			<rect x="123.8" y="190.5" class="st0" width="57.1" height="9.5"/>
		</g>
	</g>
</g>
</svg>
