<?xml version="1.0" encoding="utf-8"?>
<!-- Generator: Adobe Illustrator 22.0.0, SVG Export Plug-In . SVG Version: 6.00 Build 0)  -->
<svg version="1.1" id="Layer_1" xmlns="http://www.w3.org/2000/svg" xmlns:xlink="http://www.w3.org/1999/xlink" x="0px" y="0px"
	 viewBox="0 0 285.7 285.7" style="enable-background:new 0 0 285.7 285.7;" xml:space="preserve">
<style type="text/css">
	.st0{fill:#FEB006;}
</style>
<g>
	<g>
		<g>
			<path class="st0" d="M185.7,57.1c0-23.6-19.2-42.9-42.9-42.9S100,33.5,100,57.1c0,14.3,7.2,27.7,19,35.6v7.5
				c-5.4,1.1-9.5,5.9-9.5,11.7c0,4.2,2.2,7.9,5.6,10c-0.5,1.3-0.8,2.7-0.8,4.2c0,6.6,5.3,11.9,11.9,11.9h33.3
				c6.6,0,11.9-5.3,11.9-11.9c0-1.5-0.3-2.9-0.8-4.2c3.3-2.1,5.6-5.8,5.6-10c0-5.8-4.1-10.6-9.5-11.7v-7.5
				C178.5,84.8,185.7,71.4,185.7,57.1z M159.5,128.6h-33.3c-1.3,0-2.4-1.1-2.4-2.4s1.1-2.4,2.4-2.4h33.3c1.3,0,2.4,1.1,2.4,2.4
				S160.8,128.6,159.5,128.6z M164.3,114.3h-4.8h-33.3h-4.8c-1.3,0-2.4-1.1-2.4-2.4s1.1-2.4,2.4-2.4h42.9c1.3,0,2.4,1.1,2.4,2.4
				S165.6,114.3,164.3,114.3z M138.1,57.1c0-2.6,2.1-4.8,4.8-4.8s4.8,2.1,4.8,4.8s-2.1,4.8-4.8,4.8
				C140.2,61.9,138.1,59.8,138.1,57.1z M159.5,86l-2.4,1.4V100h-9.5V70.6c5.5-2,9.5-7.2,9.5-13.4c0-7.9-6.4-14.3-14.3-14.3
				s-14.3,6.4-14.3,14.3c0,6.2,4,11.4,9.5,13.4V100h-9.5V87.4l-2.4-1.4c-10.3-6-16.7-17-16.7-28.8c0-18.4,15-33.3,33.3-33.3
				s33.3,15,33.3,33.3C176.2,69,169.8,80,159.5,86z"/>
			<path class="st0" d="M183,223.3c-2.2-5.5-7.4-9-13.3-9h-3v-54.8c0-9.2-7.5-16.7-16.7-16.7c-9.2,0-16.7,7.5-16.7,16.7v22.6
				c-1.7-0.7-3.5-1.2-5.4-1.2h-4.5c-7.7,0-13.9,6.2-13.9,13.9v0.4h-5.1c-7.7,0-13.9,6.2-13.9,13.9v0.4h-0.4
				c-7.7,0-13.9,6.2-13.9,13.9v0.4v1v9.6c0,6.6,1.3,12.9,3.9,18.9l7.2,16.7c2.1,4.8,3.1,9.9,3.1,15.1v0.6h9.5v-0.6
				c0-6.6-1.3-12.9-3.9-18.9l-7.2-16.7c-1.2-2.9-2.1-5.8-2.6-8.8l17.9,17.9c2.8,2.8,6.4,4.2,10.1,4.2s7.3-1.4,10.1-4.2l0.8-0.8
				c2.3-2.3,3.6-5.1,4-8c0.2,0,0.4,0.1,0.6,0.1c2.6,0,5.1-0.7,7.4-2.1l0.3-0.2c0.7-0.5,1.3-1,1.9-1.5c2.1,1.9,4.8,3.4,7.7,4.1
				l6.4,1.6l3.9,11.8l9-3l-5.6-16.8l-11.5-2.9c-3.8-1-6.5-4.4-6.5-8.3c0-4.7,3.9-8.6,8.6-8.6h5.7h9.5h3c1.9,0,3.7,1.2,4.4,3
				l5.8,14.8c0.7,1.7,1,3.4,1,5.2v1c0,2.2-0.5,4.4-1.5,6.4l-5.5,11c-1.6,3.3-2.5,7-2.5,10.6v9.8h9.5v-9.8c0-2.2,0.5-4.4,1.5-6.4
				l5.5-11c1.6-3.3,2.5-7,2.5-10.6v-1c0-3-0.6-5.9-1.7-8.7L183,223.3z M118.5,251l-0.8,0.8c-1.9,1.9-4.9,1.9-6.7,0L87,227.9
				c-0.8-0.8-1.3-1.9-1.3-3.1v-1v-0.4c0-2.4,2-4.4,4.4-4.4h1.3c1.2,0,2.3,0.5,3.1,1.3l23.9,23.9C120.3,246.1,120.3,249.1,118.5,251z
				 M133.9,237c-0.2,0.8-0.7,1.7-1.7,2.4l-0.1,0.1c-1.7,1.2-4.1,0.9-5.5-0.5l-1.4-1.4l-23.9-23.9c-0.8-0.8-1.3-1.9-1.3-3.1v-1.3
				c0-2.4,2-4.4,4.4-4.4h5.3c1.4,0,2.7,0.7,3.5,1.7l11,14.7l9,12c0,0,0.1,0.1,0.1,0.1c0,0,0,0,0,0l0,0.1
				C133.5,234.6,133.7,235.8,133.9,237C134,237,134,237,133.9,237z M142.9,215.7c0,1.3-4.2,3.4-6.1,8.1c0,0,0,0,0,0l-10.2-14.5
				l-5.6-8l-0.9-1.6c-0.6-0.8-0.9-1.8-0.9-2.8v-2.1c0-2.4,2-4.4,4.4-4.4h4.5c1.6,0,2.2,0.9,3,2.3L142.9,215.7
				C142.9,215.7,142.9,215.7,142.9,215.7z M157.1,214.3h-2.5l-11.8-21.2v-33.5c0-3.9,3.2-7.1,7.1-7.1s7.1,3.2,7.1,7.1V214.3z"/>
			<rect x="138.1" y="0" class="st0" width="9.5" height="9.5"/>
			<rect x="111.9" y="7" transform="matrix(0.8661 -0.4999 0.4999 0.8661 9.7339 59.8987)" class="st0" width="9.5" height="9.5"/>
			
				<rect x="92.7" y="26.2" transform="matrix(0.4999 -0.8661 0.8661 0.4999 21.9482 99.9159)" class="st0" width="9.5" height="9.5"/>
			<rect x="85.7" y="52.4" class="st0" width="9.5" height="9.5"/>
			
				<rect x="92.7" y="78.6" transform="matrix(0.8661 -0.4999 0.4999 0.8661 -28.6042 59.8945)" class="st0" width="9.5" height="9.5"/>
			
				<rect x="183.5" y="78.6" transform="matrix(0.4999 -0.8661 0.8661 0.4999 21.9581 204.6824)" class="st0" width="9.5" height="9.5"/>
			<rect x="190.5" y="52.4" class="st0" width="9.5" height="9.5"/>
			
				<rect x="183.5" y="26.2" transform="matrix(0.8661 -0.4999 0.4999 0.8661 9.7281 98.2373)" class="st0" width="9.5" height="9.5"/>
			
				<rect x="164.3" y="7" transform="matrix(0.4999 -0.8661 0.8661 0.4999 74.3399 152.2953)" class="st0" width="9.5" height="9.5"/>
			<polygon class="st0" points="276.2,57.1 276.2,47.6 266.7,47.6 266.7,57.1 257.1,57.1 257.1,66.7 266.7,66.7 266.7,76.2 
				276.2,76.2 276.2,66.7 285.7,66.7 285.7,57.1 			"/>
			<polygon class="st0" points="228.6,28.6 238.1,28.6 238.1,19 247.6,19 247.6,9.5 238.1,9.5 238.1,0 228.6,0 228.6,9.5 219,9.5 
				219,19 228.6,19 			"/>
			<polygon class="st0" points="19,76.2 9.5,76.2 9.5,85.7 0,85.7 0,95.2 9.5,95.2 9.5,104.8 19,104.8 19,95.2 28.6,95.2 28.6,85.7 
				19,85.7 			"/>
			<polygon class="st0" points="61.9,38.1 52.4,38.1 52.4,28.6 42.9,28.6 42.9,38.1 33.3,38.1 33.3,47.6 42.9,47.6 42.9,57.1 
				52.4,57.1 52.4,47.6 61.9,47.6 			"/>
			<polygon class="st0" points="76.2,152.4 76.2,142.9 85.7,142.9 85.7,133.3 76.2,133.3 76.2,123.8 66.7,123.8 66.7,133.3 
				57.1,133.3 57.1,142.9 66.7,142.9 66.7,152.4 			"/>
			<polygon class="st0" points="242.9,100 233.3,100 233.3,109.5 223.8,109.5 223.8,119 233.3,119 233.3,128.6 242.9,128.6 
				242.9,119 252.4,119 252.4,109.5 242.9,109.5 			"/>
		</g>
	</g>
</g>
</svg>
